%TF.GenerationSoftware,KiCad,Pcbnew,(5.1.5)-3*%
%TF.CreationDate,2021-04-08T15:18:11+01:00*%
%TF.ProjectId,Data Mode Radio Cable,44617461-204d-46f6-9465-20526164696f,rev?*%
%TF.SameCoordinates,PX2dc6c00PY4d3f640*%
%TF.FileFunction,Copper,L1,Top*%
%TF.FilePolarity,Positive*%
%FSLAX46Y46*%
G04 Gerber Fmt 4.6, Leading zero omitted, Abs format (unit mm)*
G04 Created by KiCad (PCBNEW (5.1.5)-3) date 2021-04-08 15:18:11*
%MOMM*%
%LPD*%
G04 APERTURE LIST*
%TA.AperFunction,ComponentPad*%
%ADD10O,1.600000X2.000000*%
%TD*%
%TA.AperFunction,ComponentPad*%
%ADD11C,1.524000*%
%TD*%
%TA.AperFunction,ComponentPad*%
%ADD12C,1.600000*%
%TD*%
%TA.AperFunction,ComponentPad*%
%ADD13O,1.600000X1.600000*%
%TD*%
%TA.AperFunction,ComponentPad*%
%ADD14O,1.700000X1.700000*%
%TD*%
%TA.AperFunction,ComponentPad*%
%ADD15R,1.700000X1.700000*%
%TD*%
%TA.AperFunction,ComponentPad*%
%ADD16R,1.600000X1.600000*%
%TD*%
%TA.AperFunction,Conductor*%
%ADD17C,0.250000*%
%TD*%
G04 APERTURE END LIST*
D10*
%TO.P,J1,R1*%
%TO.N,Net-(J1-PadR1)*%
X8300000Y8200000D03*
%TO.P,J1,R2*%
%TO.N,GND*%
X8300000Y5200000D03*
%TO.P,J1,T*%
%TO.N,Net-(J1-PadT)*%
X8300000Y12200000D03*
%TO.P,J1,S*%
%TO.N,Net-(J1-PadS)*%
X12900000Y13300000D03*
%TD*%
D11*
%TO.P,T1,4*%
%TO.N,Net-(J3-Pad1)*%
X30600000Y25500000D03*
%TO.P,T1,3*%
%TO.N,Net-(J3-Pad2)*%
X30600000Y17000000D03*
%TO.P,T1,2*%
%TO.N,GND*%
X19600000Y17000000D03*
%TO.P,T1,1*%
%TO.N,Net-(R2-Pad2)*%
X19600000Y25500000D03*
%TD*%
D12*
%TO.P,R3,1*%
%TO.N,Net-(J4-Pad1)*%
X17850000Y10750000D03*
D13*
%TO.P,R3,2*%
%TO.N,Net-(R3-Pad2)*%
X25470000Y10750000D03*
%TD*%
D12*
%TO.P,R2,1*%
%TO.N,Net-(J1-PadT)*%
X8000000Y26800000D03*
D13*
%TO.P,R2,2*%
%TO.N,Net-(R2-Pad2)*%
X15620000Y26800000D03*
%TD*%
D12*
%TO.P,C1,1*%
%TO.N,Net-(C1-Pad1)*%
X22600000Y32800000D03*
%TO.P,C1,2*%
%TO.N,Net-(C1-Pad2)*%
X27600000Y32800000D03*
%TD*%
D14*
%TO.P,J2,2*%
%TO.N,GND*%
X38000000Y25460000D03*
D15*
%TO.P,J2,1*%
%TO.N,Net-(C1-Pad2)*%
X38000000Y28000000D03*
%TD*%
%TO.P,J3,1*%
%TO.N,Net-(J3-Pad1)*%
X38000000Y18800000D03*
D14*
%TO.P,J3,2*%
%TO.N,Net-(J3-Pad2)*%
X38000000Y16260000D03*
%TD*%
D13*
%TO.P,R1,2*%
%TO.N,Net-(C1-Pad1)*%
X15620000Y32800000D03*
D12*
%TO.P,R1,1*%
%TO.N,Net-(J1-PadS)*%
X8000000Y32800000D03*
%TD*%
D16*
%TO.P,U1,1*%
%TO.N,Net-(R3-Pad2)*%
X29600000Y10600000D03*
D13*
%TO.P,U1,3*%
%TO.N,GND*%
X37220000Y8060000D03*
%TO.P,U1,2*%
%TO.N,Net-(J4-Pad2)*%
X29600000Y8060000D03*
%TO.P,U1,4*%
%TO.N,Net-(J3-Pad2)*%
X37220000Y10600000D03*
%TD*%
D15*
%TO.P,J4,1*%
%TO.N,Net-(J4-Pad1)*%
X29050000Y1850000D03*
D14*
%TO.P,J4,2*%
%TO.N,Net-(J4-Pad2)*%
X31590000Y1850000D03*
%TD*%
D11*
%TO.P,SW1,3*%
%TO.N,Net-(SW1-Pad3)*%
X17550000Y4878000D03*
%TO.P,SW1,2*%
%TO.N,Net-(J3-Pad2)*%
X20550000Y4878000D03*
%TO.P,SW1,1*%
%TO.N,GND*%
X23550000Y4878000D03*
%TD*%
D17*
%TO.N,Net-(C1-Pad1)*%
X22600000Y32800000D02*
X15620000Y32800000D01*
%TO.N,Net-(C1-Pad2)*%
X37700000Y28000000D02*
X38000000Y28000000D01*
X27600000Y32800000D02*
X32900000Y32800000D01*
X32900000Y32800000D02*
X37700000Y28000000D01*
%TO.N,Net-(J3-Pad1)*%
X30600000Y23700000D02*
X30600000Y25500000D01*
X38000000Y18800000D02*
X35500000Y18800000D01*
X35500000Y18800000D02*
X30600000Y23700000D01*
%TO.N,Net-(J3-Pad2)*%
X38000000Y16260000D02*
X38000000Y11380000D01*
X38000000Y11380000D02*
X37220000Y10600000D01*
X38000000Y16260000D02*
X35690000Y16260000D01*
X34950000Y17000000D02*
X30600000Y17000000D01*
X35690000Y16260000D02*
X34950000Y17000000D01*
X15600000Y9828000D02*
X20550000Y4878000D01*
X30600000Y17000000D02*
X30600000Y16577630D01*
X27522370Y13500000D02*
X17300000Y13500000D01*
X30600000Y16577630D02*
X27522370Y13500000D01*
X17300000Y13500000D02*
X15600000Y11800000D01*
X15600000Y11800000D02*
X15600000Y9828000D01*
%TO.N,Net-(J1-PadS)*%
X12900000Y27900000D02*
X8000000Y32800000D01*
X12900000Y13300000D02*
X12900000Y27900000D01*
%TO.N,Net-(J1-PadT)*%
X8300000Y26500000D02*
X8000000Y26800000D01*
X8300000Y12200000D02*
X8300000Y26500000D01*
%TO.N,Net-(R2-Pad2)*%
X18300000Y26800000D02*
X19600000Y25500000D01*
X15620000Y26800000D02*
X18300000Y26800000D01*
%TO.N,Net-(J4-Pad1)*%
X29050000Y4800000D02*
X29050000Y1850000D01*
X17850000Y10750000D02*
X23100000Y10750000D01*
X23100000Y10750000D02*
X29050000Y4800000D01*
%TO.N,Net-(R3-Pad2)*%
X29450000Y10750000D02*
X29600000Y10600000D01*
X25470000Y10750000D02*
X29450000Y10750000D01*
%TO.N,Net-(J4-Pad2)*%
X31590000Y6070000D02*
X31590000Y1850000D01*
X29600000Y8060000D02*
X31590000Y6070000D01*
%TD*%
M02*
