M48
; DRILL file {KiCad (5.1.5)-3} date 08/04/2021 15:18:15
; FORMAT={-:-/ absolute / inch / decimal}
; #@! TF.CreationDate,2021-04-08T15:18:15+01:00
; #@! TF.GenerationSoftware,Kicad,Pcbnew,(5.1.5)-3
FMAT,2
INCH
T1C0.0182
T2C0.0300
T3C0.0315
T4C0.0354
T5C0.0394
T6C0.0315
T7C0.0866
%
G90
G05
T2
X0.7717Y1.0039
X0.7717Y0.6693
X1.2047Y1.0039
X1.2047Y0.6693
T3
X1.1654Y0.4173
X1.1654Y0.3173
X1.4654Y0.4173
X1.4654Y0.3173
X0.8898Y1.2913
X1.0866Y1.2913
X0.315Y1.0551
X0.615Y1.0551
X0.7028Y0.4232
X1.0028Y0.4232
X0.315Y1.2913
X0.615Y1.2913
T5
X1.2437Y0.0728
X1.4961Y1.1024
X1.4961Y1.0024
X1.4961Y0.7402
X1.4961Y0.6402
X1.1437Y0.0728
T6
X0.4173Y0.4173
X0.4173Y0.1417
T7
X1.4488Y0.126
X1.4488Y1.3307
X0.126Y0.126
X0.126Y1.3307
T1
G00X0.7015Y0.192
M15
G01X0.6804Y0.192
M16
G05
G00X0.8196Y0.192
M15
G01X0.7985Y0.192
M16
G05
G00X0.9378Y0.192
M15
G01X0.9166Y0.192
M16
G05
T4
G00X0.3268Y0.4724
M15
G01X0.3268Y0.4882
M16
G05
G00X0.3268Y0.315
M15
G01X0.3268Y0.3307
M16
G05
G00X0.3268Y0.1969
M15
G01X0.3268Y0.2126
M16
G05
G00X0.5079Y0.5157
M15
G01X0.5079Y0.5315
M16
G05
T0
M30
