%TF.GenerationSoftware,KiCad,Pcbnew,(5.1.5)-3*%
%TF.CreationDate,2021-04-08T15:18:11+01:00*%
%TF.ProjectId,Data Mode Radio Cable,44617461-204d-46f6-9465-20526164696f,rev?*%
%TF.SameCoordinates,PX2dc6c00PY4d3f640*%
%TF.FileFunction,Legend,Bot*%
%TF.FilePolarity,Positive*%
%FSLAX46Y46*%
G04 Gerber Fmt 4.6, Leading zero omitted, Abs format (unit mm)*
G04 Created by KiCad (PCBNEW (5.1.5)-3) date 2021-04-08 15:18:11*
%MOMM*%
%LPD*%
G04 APERTURE LIST*
%ADD10C,0.125000*%
G04 APERTURE END LIST*
D10*
X27309523Y1273810D02*
X27309523Y916667D01*
X27333333Y845239D01*
X27380952Y797620D01*
X27452380Y773810D01*
X27500000Y773810D01*
X26833333Y773810D02*
X27071428Y773810D01*
X27071428Y1273810D01*
X26380952Y821429D02*
X26404761Y797620D01*
X26476190Y773810D01*
X26523809Y773810D01*
X26595238Y797620D01*
X26642857Y845239D01*
X26666666Y892858D01*
X26690476Y988096D01*
X26690476Y1059524D01*
X26666666Y1154762D01*
X26642857Y1202381D01*
X26595238Y1250000D01*
X26523809Y1273810D01*
X26476190Y1273810D01*
X26404761Y1250000D01*
X26380952Y1226191D01*
X26023809Y1273810D02*
X26023809Y916667D01*
X26047619Y845239D01*
X26095238Y797620D01*
X26166666Y773810D01*
X26214285Y773810D01*
X25547619Y773810D02*
X25785714Y773810D01*
X25785714Y1273810D01*
X25095238Y821429D02*
X25119047Y797620D01*
X25190476Y773810D01*
X25238095Y773810D01*
X25309523Y797620D01*
X25357142Y845239D01*
X25380952Y892858D01*
X25404761Y988096D01*
X25404761Y1059524D01*
X25380952Y1154762D01*
X25357142Y1202381D01*
X25309523Y1250000D01*
X25238095Y1273810D01*
X25190476Y1273810D01*
X25119047Y1250000D01*
X25095238Y1226191D01*
X24738095Y1273810D02*
X24738095Y916667D01*
X24761904Y845239D01*
X24809523Y797620D01*
X24880952Y773810D01*
X24928571Y773810D01*
X24261904Y773810D02*
X24500000Y773810D01*
X24500000Y1273810D01*
X23809523Y821429D02*
X23833333Y797620D01*
X23904761Y773810D01*
X23952380Y773810D01*
X24023809Y797620D01*
X24071428Y845239D01*
X24095238Y892858D01*
X24119047Y988096D01*
X24119047Y1059524D01*
X24095238Y1154762D01*
X24071428Y1202381D01*
X24023809Y1250000D01*
X23952380Y1273810D01*
X23904761Y1273810D01*
X23833333Y1250000D01*
X23809523Y1226191D01*
X23452380Y1273810D02*
X23452380Y916667D01*
X23476190Y845239D01*
X23523809Y797620D01*
X23595238Y773810D01*
X23642857Y773810D01*
X22976190Y773810D02*
X23214285Y773810D01*
X23214285Y1273810D01*
X22523809Y821429D02*
X22547619Y797620D01*
X22619047Y773810D01*
X22666666Y773810D01*
X22738095Y797620D01*
X22785714Y845239D01*
X22809523Y892858D01*
X22833333Y988096D01*
X22833333Y1059524D01*
X22809523Y1154762D01*
X22785714Y1202381D01*
X22738095Y1250000D01*
X22666666Y1273810D01*
X22619047Y1273810D01*
X22547619Y1250000D01*
X22523809Y1226191D01*
M02*
